<svg width="15" height="14" viewBox="0 0 15 14" fill="none" xmlns="http://www.w3.org/2000/svg">
<path d="M13.993 0.621597C13.9877 0.595686 13.975 0.571837 13.9566 0.552846C13.9382 0.533854 13.9147 0.520508 13.889 0.51437C12.1731 0.0948391 8.20834 1.58986 6.0603 3.73703C5.67718 4.11705 5.32791 4.52974 5.01645 4.97042C4.35405 4.91183 3.69165 4.96075 3.1271 5.20685C1.53423 5.90792 1.07046 7.73722 0.941257 8.52413C0.933929 8.5672 0.936693 8.61139 0.949333 8.65321C0.961972 8.69503 0.984142 8.73335 1.0141 8.76515C1.04406 8.79696 1.08098 8.82137 1.12198 8.83649C1.16297 8.8516 1.20691 8.857 1.25034 8.85226L3.80825 8.57013C3.81007 8.76298 3.82171 8.95561 3.84311 9.14728C3.85598 9.28038 3.91507 9.40477 4.0101 9.49884L5.00063 10.487C5.09479 10.5819 5.21913 10.641 5.35219 10.654C5.54279 10.6753 5.73434 10.687 5.92612 10.6889L5.64545 13.2436C5.64077 13.287 5.64621 13.3309 5.66135 13.3719C5.67648 13.4128 5.7009 13.4497 5.73269 13.4797C5.76448 13.5096 5.80277 13.5318 5.84457 13.5444C5.88636 13.5571 5.93052 13.5599 5.97358 13.5526C6.75903 13.4267 8.59155 12.9629 9.28852 11.37C9.53461 10.8055 9.585 10.1463 9.52817 9.48712C9.96991 9.17564 10.3837 8.82628 10.7648 8.44298C12.9196 6.29904 14.4061 2.42277 13.993 0.621597ZM8.61498 5.88536C8.41822 5.68873 8.2842 5.43816 8.22987 5.16535C8.17553 4.89254 8.20333 4.60975 8.30973 4.35273C8.41614 4.09572 8.59638 3.87604 8.82766 3.72148C9.05894 3.56692 9.33086 3.48442 9.60903 3.48442C9.8872 3.48442 10.1591 3.56692 10.3904 3.72148C10.6217 3.87604 10.8019 4.09572 10.9083 4.35273C11.0147 4.60975 11.0425 4.89254 10.9882 5.16535C10.9339 5.43816 10.7998 5.68873 10.6031 5.88536C10.4726 6.01602 10.3176 6.11968 10.1471 6.1904C9.97651 6.26112 9.79367 6.29753 9.60903 6.29753C9.42438 6.29753 9.24154 6.26112 9.07098 6.1904C8.90041 6.11968 8.74546 6.01602 8.61498 5.88536Z" fill="#4FD1C5"/>
</svg>
